
          <svg data-logo="logo" xmlns="http://www.w3.org/2000/svg" viewBox="0 0 226 43">
            <g id="logogram" transform="translate(0, 1) rotate(0)"><path d="M30.9843 17.839C31.6383 17.182 32.4473 16.701 33.3373 16.44C34.2263 16.18 35.1673 16.148 36.0723 16.348C36.9783 16.548 37.8183 16.973 38.5153 17.584C39.2123 18.195 39.7433 18.972 40.0603 19.843C40.3773 20.714 40.4693 21.651 40.3273 22.567C40.1853 23.483 39.8153 24.348 39.2493 25.083C38.6843 25.818 37.9433 26.398 37.0943 26.769C36.2443 27.141 35.3153 27.292 34.3923 27.209L34.4203 27.236C33.4763 27.157 32.5252 27.284 31.6342 27.61C30.7442 27.935 29.9353 28.451 29.2653 29.122C28.5943 29.792 28.0783 30.601 27.7533 31.491C27.4273 32.382 27.3003 33.333 27.3793 34.278L27.3513 34.251C27.4573 35.381 27.2122 36.516 26.6492 37.502C26.0872 38.488 25.2342 39.276 24.2072 39.759C23.1802 40.242 22.0292 40.397 20.9102 40.202C19.7922 40.007 18.7623 39.472 17.9593 38.67C17.1563 37.868 16.6203 36.837 16.4243 35.719C16.2283 34.601 16.3813 33.45 16.8643 32.422C17.3463 31.395 18.1332 30.541 19.1192 29.978C20.1042 29.414 21.2392 29.168 22.3692 29.273L22.3423 29.246C23.2873 29.326 24.2383 29.199 25.1283 28.873C26.0193 28.548 26.8272 28.031 27.4982 27.361C28.1682 26.691 28.6843 25.882 29.0103 24.992C29.3363 24.101 29.4633 23.15 29.3833 22.205L29.4102 22.232C29.3332 21.43 29.4333 20.62 29.7043 19.86C29.9763 19.101 30.4112 18.411 30.9792 17.839H30.9843ZM17.1283 26.11C16.2373 26.435 15.4283 26.951 14.7583 27.622C14.0883 28.292 13.5712 29.101 13.2462 29.991C12.9202 30.882 12.7932 31.833 12.8732 32.778L12.8443 32.751C12.9503 33.881 12.7053 35.016 12.1423 36.002C11.5793 36.988 10.7263 37.776 9.69925 38.259C8.67125 38.742 7.52025 38.896 6.40225 38.701C5.28325 38.506 4.25326 37.97 3.45026 37.168C2.64726 36.365 2.11226 35.334 1.91626 34.216C1.72126 33.097 1.87525 31.946 2.35825 30.919C2.84125 29.891 3.63025 29.038 4.61525 28.475C5.60125 27.912 6.73725 27.667 7.86725 27.773L7.84026 27.746C8.78526 27.826 9.73525 27.698 10.6263 27.373C11.5163 27.047 12.3253 26.531 12.9953 25.86C13.6653 25.19 14.1822 24.381 14.5072 23.491C14.8332 22.601 14.9613 21.65 14.8813 20.705L14.9083 20.732C14.8283 19.929 14.9273 19.118 15.1983 18.358C15.4703 17.598 15.9073 16.908 16.4783 16.338C17.0493 15.767 17.7393 15.331 18.4993 15.06C19.2603 14.789 20.0713 14.69 20.8743 14.771L20.8473 14.743C21.7923 14.823 22.7423 14.695 23.6333 14.37C24.5243 14.044 25.3333 13.528 26.0033 12.858C26.6733 12.187 27.1903 11.379 27.5153 10.488C27.8413 9.59703 27.9683 8.64603 27.8883 7.70203L27.9153 7.73003C27.8093 6.60003 28.0543 5.46403 28.6173 4.47803C29.1803 3.49303 30.0333 2.70403 31.0603 2.22103C32.0883 1.73803 33.2393 1.58403 34.3573 1.77903C35.4753 1.97503 36.5063 2.51003 37.3093 3.31303C38.1123 4.11603 38.6473 5.14703 38.8433 6.26503C39.0383 7.38303 38.8842 8.53403 38.4012 9.56203C37.9182 10.589 37.1293 11.442 36.1433 12.005C35.1583 12.568 34.0223 12.813 32.8923 12.707L32.9203 12.734C31.9763 12.654 31.0252 12.782 30.1342 13.108C29.2442 13.433 28.4353 13.949 27.7653 14.62C27.0943 15.29 26.5783 16.099 26.2533 16.989C25.9273 17.88 25.8003 18.83 25.8793 19.775L25.8513 19.748C25.9313 20.551 25.8323 21.362 25.5603 22.122C25.2893 22.882 24.8523 23.573 24.2813 24.143C23.7103 24.714 23.0202 25.15 22.2592 25.421C21.4992 25.692 20.6883 25.79 19.8853 25.709L19.9142 25.736C18.9692 25.657 18.0183 25.784 17.1283 26.11ZM9.86325 22.726C9.20925 23.383 8.40025 23.863 7.51125 24.124C6.62125 24.385 5.68026 24.417 4.77526 24.217C3.87026 24.017 3.03025 23.592 2.33325 22.981C1.63625 22.37 1.10425 21.594 0.787249 20.723C0.470249 19.852 0.379251 18.915 0.520251 17.999C0.662251 17.083 1.03226 16.217 1.59726 15.483C2.16226 14.748 2.90425 14.168 3.75325 13.796C4.60225 13.424 5.53126 13.272 6.45426 13.355L6.42725 13.328C7.37225 13.408 8.32326 13.28 9.21326 12.955C10.1043 12.629 10.9123 12.113 11.5833 11.443C12.2533 10.772 12.7692 9.96403 13.0952 9.07303C13.4202 8.18303 13.5482 7.23203 13.4682 6.28703L13.4953 6.31403C13.3893 5.18403 13.6343 4.04903 14.1973 3.06403C14.7603 2.07803 15.6133 1.29103 16.6403 0.808033C17.6673 0.325033 18.8183 0.171031 19.9363 0.366031C21.0543 0.562031 22.0843 1.09703 22.8873 1.89903C23.6893 2.70203 24.2253 3.73203 24.4203 4.85003C24.6153 5.96803 24.4613 7.11903 23.9783 8.14603C23.4953 9.17303 22.7083 10.026 21.7223 10.589C20.7373 11.152 19.6023 11.397 18.4723 11.291L18.5013 11.318C17.5563 11.238 16.6043 11.365 15.7143 11.69C14.8233 12.016 14.0142 12.532 13.3432 13.202C12.6722 13.873 12.1562 14.682 11.8302 15.572C11.5042 16.463 11.3772 17.414 11.4572 18.359L11.4283 18.332C11.5063 19.135 11.4063 19.945 11.1353 20.704C10.8643 21.464 10.4293 22.154 9.86125 22.726H9.86325Z" fill="#394149"/></g>
            <g id="logotype" transform="translate(47, 7)"><path fill="#111111" d="M13.14 29L6.84 4.43L13.21 4.43L17.48 25.85L15.94 25.85L21.23 4.43L27.74 4.43L32.78 25.88L31.24 25.88L35.54 4.43L41.91 4.43L35.47 29L28.33 29L23.96 11.04L24.80 11.04L20.25 29L13.14 29ZM49.26 29L43.34 29L43.34 9.47L49.26 9.47L49.26 29ZM49.26 20.60L48.35 20.60L49.26 14.19Q49.89 11.92 51.46 10.61Q53.04 9.29 55.49 9.29L55.49 9.29L55.49 15.45Q55.10 15.38 54.75 15.35Q54.41 15.31 54.05 15.31L54.05 15.31Q52.76 15.31 51.67 15.93Q50.59 16.54 49.92 17.71Q49.26 18.88 49.26 20.60L49.26 20.60ZM62.88 29L56.99 29L56.99 9.47L62.88 9.47L62.88 29ZM59.97 7.40L59.97 7.40Q58.26 7.40 57.17 6.42Q56.09 5.44 56.09 3.97L56.09 3.97Q56.09 2.47 57.17 1.47Q58.26 0.47 59.97 0.47L59.97 0.47Q61.65 0.47 62.73 1.47Q63.82 2.47 63.82 3.97L63.82 3.97Q63.82 5.44 62.73 6.42Q61.65 7.40 59.97 7.40ZM74.25 29.25L74.25 29.25Q71.03 29.25 69.31 27.48Q67.60 25.71 67.60 22.35L67.60 22.35L67.60 14.26L64.48 14.26L64.48 9.47L77.40 9.47L77.40 14.26L73.51 14.26L73.51 22.42Q73.51 23.26 74.06 23.73Q74.60 24.20 75.37 24.20L75.37 24.20Q75.72 24.20 76.02 24.12Q76.31 24.03 76.59 23.86L76.59 23.86L78.06 28.20Q77.22 28.65 76.30 28.95Q75.37 29.25 74.25 29.25ZM71.31 9.47L66.02 11.04L66.02 9.47Q66.79 9.47 67.28 8.98Q67.77 8.49 67.77 7.72L67.77 7.72L67.77 4.71L73.51 4.71L73.51 6.81Q73.51 7.30 73.27 7.88Q73.02 8.45 72.52 8.89Q72.01 9.33 71.31 9.47L71.31 9.47ZM89.34 29.25L89.34 29.25Q87.20 29.25 85.26 28.58Q83.32 27.91 81.83 26.64Q80.34 25.36 79.48 23.54Q78.63 21.72 78.63 19.38L78.63 19.38Q78.63 17.13 79.45 15.28Q80.27 13.42 81.69 12.06Q83.11 10.69 84.98 9.96Q86.85 9.22 88.95 9.22L88.95 9.22Q90.67 9.22 92.22 9.68Q93.78 10.13 95.02 11.01Q96.27 11.88 96.98 13.07Q97.70 14.26 97.70 15.73L97.70 15.73Q97.70 17.59 96.65 18.81Q95.60 20.04 93.90 20.74Q92.21 21.44 90.19 21.74Q88.18 22.04 86.22 22L86.22 22Q85.98 22 85.64 21.98Q85.31 21.96 85.03 21.95Q84.75 21.93 84.61 21.93L84.61 21.93Q84.82 22.73 85.50 23.38Q86.19 24.03 87.24 24.41Q88.29 24.80 89.41 24.80L89.41 24.80Q90.53 24.80 91.56 24.41Q92.59 24.03 93.43 23.43Q94.27 22.84 94.87 22.11L94.87 22.11L98.65 25.08Q97.60 26.48 96.09 27.41Q94.59 28.34 92.85 28.79Q91.12 29.25 89.34 29.25ZM86.26 18.11L86.26 18.11Q87.20 18.11 88.22 18.01Q89.23 17.91 90.09 17.64Q90.95 17.38 91.49 16.91Q92.03 16.43 92.03 15.70L92.03 15.70Q92.03 15.10 91.61 14.65Q91.19 14.19 90.49 13.95Q89.79 13.70 88.99 13.70L88.99 13.70Q87.59 13.70 86.54 14.37Q85.49 15.03 84.93 16.03Q84.37 17.03 84.30 18.04L84.30 18.04Q84.61 18.08 85.15 18.10Q85.70 18.11 86.26 18.11ZM100.22 29L100.22 4.43L116.15 4.43L116.15 9.15L106.14 9.15L106.14 14.44L113.66 14.44L113.66 19.02L106.14 19.02L106.14 29L100.22 29ZM118.11 22.95L118.11 22.95L118.11 3.10L124.02 3.10L124.02 22.66Q124.02 23.43 124.49 23.82Q124.97 24.20 125.60 24.20L125.60 24.20Q126.02 24.20 126.40 24.06L126.40 24.06L127.35 28.61Q125.95 29.25 124.20 29.25L124.20 29.25Q122.73 29.25 121.33 28.65Q119.93 28.05 119.02 26.67Q118.11 25.29 118.11 22.95ZM137.71 29.25L137.71 29.25Q134.84 29.25 132.56 28.04Q130.29 26.83 128.97 24.55Q127.66 22.28 127.66 19.23L127.66 19.23Q127.66 16.16 128.99 13.91Q130.32 11.67 132.61 10.45Q134.91 9.22 137.78 9.22L137.78 9.22Q140.68 9.22 142.97 10.43Q145.27 11.64 146.60 13.90Q147.93 16.16 147.93 19.23L147.93 19.23Q147.93 22.28 146.56 24.55Q145.20 26.83 142.89 28.04Q140.58 29.25 137.71 29.25ZM137.71 24.13L137.71 24.13Q138.79 24.13 139.75 23.59Q140.72 23.05 141.31 21.96Q141.91 20.88 141.91 19.23L141.91 19.23Q141.91 17.55 141.31 16.49Q140.72 15.42 139.79 14.89Q138.86 14.37 137.78 14.37L137.78 14.37Q136.69 14.37 135.76 14.89Q134.84 15.42 134.26 16.49Q133.68 17.55 133.68 19.23L133.68 19.23Q133.68 20.88 134.22 21.96Q134.77 23.05 135.69 23.59Q136.62 24.13 137.71 24.13ZM153.21 29L147.89 9.47L153.77 9.47L157.31 27.07L155.73 27.07L159.90 9.47L166.20 9.47L170.36 27.07L168.79 27.07L172.29 9.47L177.89 9.47L172.53 29L166.02 29L162.17 13.32L163.64 13.32L159.72 29L153.21 29Z"/></g>
            
          </svg>
        